<svg width="20" height="20" viewBox="0 0 20 20" fill="none" xmlns="http://www.w3.org/2000/svg">
<path fill-rule="evenodd" clip-rule="evenodd" d="M17.0287 2.9713C15.7337 1.67624 13.634 1.67623 12.3389 2.97129L9.20227 6.10797C8.81175 6.4985 8.17859 6.4985 7.78806 6.10798C7.39753 5.71746 7.39753 5.08429 7.78805 4.69377L10.9247 1.55709C13.0008 -0.51903 16.3668 -0.519028 18.4429 1.55709C20.519 3.6332 20.519 6.99924 18.4429 9.07535L15.3063 12.212C14.9158 12.6026 14.2826 12.6026 13.8921 12.212C13.5015 11.8215 13.5015 11.1883 13.8921 10.7978L17.0287 7.66114C18.3238 6.36608 18.3238 4.26636 17.0287 2.9713ZM6.5 1.5C7.05228 1.5 7.5 1.94772 7.5 2.5V4.5C7.5 5.05228 7.05228 5.5 6.5 5.5C5.94772 5.5 5.5 5.05228 5.5 4.5V2.5C5.5 1.94772 5.94772 1.5 6.5 1.5ZM4 7.5L2 7.5C1.44772 7.5 1 7.05229 1 6.5C1 5.94772 1.44771 5.5 2 5.5L4 5.5C4.55228 5.5 5 5.94771 5 6.5C5 7.05228 4.55229 7.5 4 7.5ZM6.10794 7.78796C6.49846 8.17849 6.49847 8.81165 6.10794 9.20218L2.97129 12.3389C1.67624 13.6339 1.67624 15.7336 2.97129 17.0287C4.26634 18.3238 6.36603 18.3238 7.66107 17.0287L10.7977 13.892C11.1882 13.5015 11.8214 13.5015 12.2119 13.892C12.6025 14.2825 12.6025 14.9157 12.2119 15.3062L9.07529 18.4429C6.99919 20.519 3.63317 20.519 1.55707 18.4429C-0.519023 16.3668 -0.519024 13.0008 1.55707 10.9246L4.69372 7.78797C5.08425 7.39744 5.71741 7.39744 6.10794 7.78796ZM18 14.4041L16 14.4041C15.4477 14.4041 15 13.9564 15 13.4041C15 12.8518 15.4477 12.4041 16 12.4041L18 12.4041C18.5523 12.4041 19 12.8518 19 13.4041C19 13.9564 18.5523 14.4041 18 14.4041ZM14.0226 14.7358C14.5749 14.7358 15.0226 15.1835 15.0226 15.7358V17.7358C15.0226 18.2881 14.5749 18.7358 14.0226 18.7358C13.4703 18.7358 13.0226 18.2881 13.0226 17.7358V15.7358C13.0226 15.1835 13.4703 14.7358 14.0226 14.7358Z" fill="black"/>
</svg>
