<svg width="20" height="20" viewBox="0 0 20 20" fill="currentColor" xmlns="http://www.w3.org/2000/svg">
<path fill-rule="evenodd" clip-rule="evenodd" d="M17.0287 2.9713C15.7337 1.67624 13.634 1.67623 12.3389 2.97129L9.20227 6.10797C8.81175 6.4985 8.17859 6.4985 7.78806 6.10798C7.39753 5.71746 7.39753 5.08429 7.78805 4.69377L10.9247 1.55709C13.0008 -0.51903 16.3668 -0.519028 18.4429 1.55709C20.519 3.6332 20.519 6.99924 18.4429 9.07535L15.3063 12.212C14.9158 12.6026 14.2826 12.6026 13.8921 12.212C13.5015 11.8215 13.5015 11.1883 13.8921 10.7978L17.0287 7.66114C18.3238 6.36608 18.3238 4.26636 17.0287 2.9713ZM14.7297 5.27057C15.1202 5.66109 15.1203 6.29426 14.7297 6.68478L7.30335 14.1112C6.91282 14.5018 6.27966 14.5018 5.88913 14.1112C5.49861 13.7207 5.4986 13.0875 5.88913 12.697L13.3155 5.27058C13.706 4.88005 14.3392 4.88005 14.7297 5.27057ZM6.10794 7.78796C6.49846 8.17849 6.49847 8.81165 6.10794 9.20218L2.97129 12.3389C1.67624 13.6339 1.67624 15.7336 2.97129 17.0287C4.26634 18.3238 6.36603 18.3238 7.66107 17.0287L10.7977 13.892C11.1882 13.5015 11.8214 13.5015 12.2119 13.892C12.6025 14.2825 12.6025 14.9157 12.2119 15.3062L9.07529 18.4429C6.99919 20.519 3.63317 20.519 1.55707 18.4429C-0.519023 16.3668 -0.519024 13.0008 1.55707 10.9247L4.69372 7.78797C5.08425 7.39744 5.71741 7.39744 6.10794 7.78796Z" fill="black"/>
</svg>
